<svg xmlns="http://www.w3.org/2000/svg" viewBox="0 0 512 512"><path d="M256 160c-53 0-96 43-96 96s43 96 96 96 96-43 96-96-43-96-96-96zm0-48c13.3 0 24-10.7 24-24V24c0-13.3-10.7-24-24-24s-24 10.7-24 24v64c0 13.3 10.7 24 24 24zm0 288c-13.3 0-24 10.7-24 24v64c0 13.3 10.7 24 24 24s24-10.7 24-24v-64c0-13.3-10.7-24-24-24zM512 256c0-13.3-10.7-24-24-24h-64c-13.3 0-24 10.7-24 24s10.7 24 24 24h64c13.3 0 24-10.7 24-24zM112 256c0-13.3-10.7-24-24-24H24c-13.3 0-24 10.7-24 24s10.7 24 24 24h64c13.3 0 24-10.7 24-24zm268.4-124.4 45.3-45.3c9.4-9.4 9.4-24.6 0-33.9s-24.6-9.4-33.9 0l-45.3 45.3c-9.4 9.4-9.4 24.6 0 33.9s24.5 9.4 33.9 0zM131.6 380.4c-9.4-9.4-24.6-9.4-33.9 0l-45.3 45.3c-9.4 9.4-9.4 24.6 0 33.9s24.6 9.4 33.9 0l45.3-45.3c9.4-9.4 9.4-24.5 0-33.9zm294.1 79.2c9.4 9.4 24.6 9.4 33.9 0s9.4-24.6 0-33.9l-45.3-45.3c-9.4-9.4-24.6-9.4-33.9 0s-9.4 24.6 0 33.9l45.3 45.3zM86.3 52.4c-9.4-9.4-24.6-9.4-33.9 0s-9.4 24.6 0 33.9l45.3 45.3c9.4 9.4 24.6 9.4 33.9 0s9.4-24.6 0-33.9L86.3 52.4z"/></svg>
